<svg xmlns="http://www.w3.org/2000/svg" xmlns:xlink="http://www.w3.org/1999/xlink" viewBox="0 0 554.42 189.19"><defs><style>.cls-1{fill:#00b7ad;}.cls-2{fill:#66be77;}.cls-3{fill:url(#linear-gradient);}</style><linearGradient id="linear-gradient" x1="83.77" y1="50.07" x2="81.01" y2="139.36" gradientUnits="userSpaceOnUse"><stop offset="0" stop-color="#00b6ac"/><stop offset="0.59" stop-color="#3fbc8c"/><stop offset="1" stop-color="#67bf78"/></linearGradient></defs><title>Silicon Jungles Logo </title><g id="Layer_6" data-name="Layer 6"><g id="_Group_" data-name="&lt;Group&gt;"><g id="_Group_2" data-name="&lt;Group&gt;"><polygon id="_Path_" data-name="&lt;Path&gt;" class="cls-1" points="47.48 105.97 47.45 95.27 33.18 90.28 33.16 53.92 82.4 36.31 133.95 54.33 133.98 67.85 143.48 64.73 143.49 47.05 82.31 25.21 22.81 47.25 22.83 97.32 47.48 105.97"/><polygon id="_Path_2" data-name="&lt;Path&gt;" class="cls-2" points="143.5 85.26 118.67 94 118.67 104.68 134.01 99.28 134 135.07 82.31 153.08 33.21 135.41 33.21 125.73 22.81 122.2 22.81 142.6 82.36 163.98 143.5 142.76 143.5 85.26"/></g><path class="cls-3" d="M105.89,69.45,100,74.66l4.49,4.11v7.57L87,95V86.87L99.31,80.6V66.35L104.12,62,97.83,56.4,91.59,62l4.85,4.44V78.84L87,83.65V79H84.07l0-16.14,6.8-6.21L82.1,48.94l-8.68,7.74,6.33,5.8h0l0,16.54H77.4l-4.91-2.34V75.23l4.43-4L71,66l-5.84,5.21,4.42,4.05V78.5l4.59,2.19v6.85l-12-5.61V69.49l4.83-4.41-6.29-5.56-6.24,5.57,4.82,4.42V83.75l14.85,7v8.44L68.59,96l-1.8-5-7.65,1.79,2.63,7.51,6-1.5,6.48,3.65v16.62a18.25,18.25,0,0,1-2.07,8.71c-1.19,2.18-5.88,6.84-7.59,7.47l-2,.72L75,140.25l.64-.24a13.23,13.23,0,0,0,4.12-2.48c5.72,4.66,9,2.55,9,2.55-2.35-.32-5.09-3.29-6.6-5.14a21.51,21.51,0,0,0,1.64-2.58A27.85,27.85,0,0,0,87,119.07V98.19l20.42-10.07V78.64l4.37-4ZM95.88,62l2-1.75,2,1.75-2,1.8Zm-26.4,9.22L71,69.83l1.58,1.4L71,72.66ZM58.82,65.11l2-1.75,2,1.75-2,1.8Zm4.78,31.76-.7-2L65,94.39l.71,2ZM82.12,60.75l-4.41-4,4.4-3.93,4.44,3.93ZM105.9,76.12l-1.57-1.44,1.56-1.39,1.58,1.4Z"/></g><g id="_Group_3" data-name="&lt;Group&gt;"><path id="_Path_3" data-name="&lt;Path&gt;" class="cls-1" d="M214.07,53.49a8,8,0,0,0-5.18-2.08H190c-.77,0-1.11,0-1.14,0a4.45,4.45,0,0,1-.46-.32l-.1-.08c0-.18,0-.4,0-.66V37.86c0-.27,0-.5,0-.65l.11-.09c.23-.18.37-.27.39-.29s.48,0,1.21,0h15.16c.77,0,1.11,0,1.14,0a4.56,4.56,0,0,1,.46.32l.1.08c0,.18,0,.4,0,.66v3.66h11V36.2a7.13,7.13,0,0,0-2.67-5.61L213.28,29a8.05,8.05,0,0,0-5.18-2.08h-21A8.06,8.06,0,0,0,181.92,29L180,30.59a7.12,7.12,0,0,0-2.67,5.61V52.55a6,6,0,0,0,2.42,4.81l2.15,1.83a8,8,0,0,0,5.18,2.08H206c.77,0,1.11,0,1.14,0a4.35,4.35,0,0,1,.46.32l.1.08c0,.18,0,.4,0,.66V75.61c0,.27,0,.5,0,.66l-.11.09c-.23.18-.37.27-.38.29s-.48,0-1.21,0H189.23c-.77,0-1.12,0-1.14,0a4.36,4.36,0,0,1-.46-.32l-.1-.08c0-.18,0-.4,0-.66V71.95h-11v5.32a7.12,7.12,0,0,0,2.68,5.61l1.89,1.58a8,8,0,0,0,5.18,2.08h22.59a8,8,0,0,0,5.17-2.08l1.9-1.58a7.12,7.12,0,0,0,2.68-5.61V60.69A7.12,7.12,0,0,0,216,55.07Z"/><rect id="_Path_4" data-name="&lt;Path&gt;" class="cls-1" x="229.71" y="26.93" width="10.96" height="59.61"/><polygon id="_Path_5" data-name="&lt;Path&gt;" class="cls-1" points="264.68 26.93 253.71 26.93 253.71 86.54 292.16 86.54 292.16 76.69 264.68 76.69 264.68 26.93"/><rect id="_Path_6" data-name="&lt;Path&gt;" class="cls-1" x="296.83" y="26.93" width="10.96" height="59.61"/><path id="_Path_7" data-name="&lt;Path&gt;" class="cls-1" d="M361.19,29A8.05,8.05,0,0,0,356,26.93H330.59A8.05,8.05,0,0,0,325.41,29l-1.9,1.58a7.12,7.12,0,0,0-2.67,5.61V77.27a7.12,7.12,0,0,0,2.68,5.61l1.89,1.58a8,8,0,0,0,5.18,2.08H356a8,8,0,0,0,5.18-2.08l1.89-1.58a7.12,7.12,0,0,0,2.68-5.61V71.95h-11v3.66c0,.27,0,.5,0,.65l-.11.09c-.23.18-.37.27-.38.29s-.48,0-1.21,0H333.51c-.78,0-1.12,0-1.14,0a4.38,4.38,0,0,1-.46-.32l-.1-.08c0-.18,0-.4,0-.66V37.86c0-.27,0-.5,0-.66l.11-.08c.23-.18.37-.27.39-.29s.48,0,1.21,0H353.1c.77,0,1.1,0,1.13,0a4.25,4.25,0,0,1,.46.32l.1.08c0,.18,0,.4,0,.66v3.66h11V36.2a7.13,7.13,0,0,0-2.67-5.61Z"/><path id="_Compound_Path_" data-name="&lt;Compound Path&gt;" class="cls-1" d="M418.61,29a8.05,8.05,0,0,0-5.18-2.08h-28.9A8.05,8.05,0,0,0,379.35,29l-1.9,1.58a7.12,7.12,0,0,0-2.67,5.61V77.27a7.12,7.12,0,0,0,2.68,5.61l1.89,1.58a8,8,0,0,0,5.18,2.08h28.9a8,8,0,0,0,5.18-2.08l1.89-1.58a7.12,7.12,0,0,0,2.68-5.61V36.2a7.13,7.13,0,0,0-2.67-5.61Zm-6.39,8.85V75.61c0,.27,0,.5,0,.65l-.11.09c-.23.18-.37.27-.38.29s-.48,0-1.21,0H387.45c-.62,0-1,0-1.08,0h-.06a4.36,4.36,0,0,1-.46-.32l-.1-.08c0-.18,0-.4,0-.66V37.86c0-.27,0-.5,0-.66l.11-.08c.23-.18.37-.27.39-.29s.48,0,1.21,0h23.06c.77,0,1.1,0,1.13,0a4.23,4.23,0,0,1,.46.32l.1.08C412.21,37.38,412.21,37.6,412.21,37.86Z"/><polygon id="_Path_8" data-name="&lt;Path&gt;" class="cls-1" points="471.44 26.93 471.44 66.24 446.2 26.93 436.22 26.93 436.22 86.54 447.18 86.54 447.18 47.77 472.43 86.54 482.41 86.54 482.41 26.93 471.44 26.93"/></g><g id="_Group_4" data-name="&lt;Group&gt;"><path id="_Path_9" data-name="&lt;Path&gt;" class="cls-2" d="M199.44,153.06c0,.27,0,.5,0,.66l-.11.08c-.23.18-.37.27-.38.29s-.48,0-1.21,0h-8.52c-.77,0-1.12,0-1.14,0a4.61,4.61,0,0,1-.46-.32l-.1-.08c0-.18,0-.4,0-.66v-6h-11v7.69a7.12,7.12,0,0,0,2.67,5.61l1.89,1.58A8,8,0,0,0,186.3,164h14.36a8,8,0,0,0,5.17-2.08l1.89-1.58a7.11,7.11,0,0,0,2.67-5.61V104.42h-11Z"/><path id="_Path_10" data-name="&lt;Path&gt;" class="cls-2" d="M258.78,153.06c0,.27,0,.5,0,.66l-.11.08c-.23.18-.37.27-.38.29s-.48,0-1.21,0h-21c-.78,0-1.12,0-1.14,0a4.38,4.38,0,0,1-.46-.32l-.1-.08c0-.18,0-.4,0-.66V104.42h-11v50.29a7.11,7.11,0,0,0,2.67,5.61L228,161.9a8,8,0,0,0,5.17,2.08H260a8,8,0,0,0,5.17-2.08l1.89-1.58a7.11,7.11,0,0,0,2.67-5.61V104.42h-11Z"/><polygon id="_Path_11" data-name="&lt;Path&gt;" class="cls-2" points="317.95 143.69 292.73 104.42 282.76 104.42 282.76 163.98 293.72 163.98 293.72 125.24 318.94 163.98 328.91 163.98 328.91 104.42 317.95 104.42 317.95 143.69"/><path id="_Path_12" data-name="&lt;Path&gt;" class="cls-2" d="M382.1,106.5a8,8,0,0,0-5.17-2.08H351.68a8,8,0,0,0-5.17,2.08l-1.9,1.58a7.12,7.12,0,0,0-2.67,5.61v41a7.11,7.11,0,0,0,2.67,5.61l1.89,1.58a8,8,0,0,0,5.17,2.08h25.25a8,8,0,0,0,5.17-2.08l1.9-1.58a7.12,7.12,0,0,0,2.67-5.61V131.25H363.72v9.85h12v12c0,.27,0,.5,0,.65l-.11.09c-.23.18-.37.27-.38.29a12,12,0,0,1-1.21,0H354.6c-.77,0-1.12,0-1.14,0a4.38,4.38,0,0,1-.46-.32l-.1-.08c0-.18,0-.4,0-.66V115.34c0-.27,0-.5,0-.65l.11-.08c.23-.18.37-.27.39-.29s.48,0,1.21,0H374c.77,0,1.1,0,1.14,0a4.59,4.59,0,0,1,.46.32l.1.08c0,.18,0,.4,0,.66V119h11v-5.32a7.13,7.13,0,0,0-2.67-5.61Z"/><polygon id="_Path_13" data-name="&lt;Path&gt;" class="cls-2" points="408.68 104.42 397.73 104.42 397.73 163.98 436.14 163.98 436.14 154.13 408.68 154.13 408.68 104.42"/><polygon id="_Path_14" data-name="&lt;Path&gt;" class="cls-2" points="440.81 163.98 480.48 163.98 480.48 154.13 451.76 154.13 451.76 138.73 476.06 138.73 476.06 128.88 451.76 128.88 451.76 114.27 480.48 114.27 480.48 104.42 440.81 104.42 440.81 163.98"/><path id="_Path_15" data-name="&lt;Path&gt;" class="cls-2" d="M528.94,132.54,527,131a8,8,0,0,0-5.17-2.08H503c-.76,0-1.1,0-1.14,0a4.4,4.4,0,0,1-.46-.32l-.1-.08c0-.18,0-.4,0-.66V115.34c0-.27,0-.5,0-.65l.11-.09c.23-.18.37-.27.39-.29s.48,0,1.21,0h15.15c.77,0,1.1,0,1.14,0a4.55,4.55,0,0,1,.46.32l.1.08c0,.18,0,.4,0,.66V119h11v-5.32a7.13,7.13,0,0,0-2.67-5.61l-1.89-1.58a8,8,0,0,0-5.17-2.08h-21a8.05,8.05,0,0,0-5.17,2.08L493,108.08a7.12,7.12,0,0,0-2.67,5.61V130a6,6,0,0,0,2.42,4.8l2.15,1.83a8,8,0,0,0,5.17,2.08H519c.77,0,1.11,0,1.13,0a4.35,4.35,0,0,1,.46.32l.1.08c0,.18,0,.4,0,.66v13.26c0,.27,0,.5,0,.65l-.11.09c-.23.18-.37.27-.38.29s-.48,0-1.21,0H502.23c-.78,0-1.12,0-1.14,0a4.41,4.41,0,0,1-.46-.32l-.1-.08c0-.18,0-.4,0-.66V149.4h-11v5.32a7.11,7.11,0,0,0,2.67,5.61l1.89,1.58a8,8,0,0,0,5.17,2.08h22.57A8,8,0,0,0,527,161.9l1.89-1.58a7.11,7.11,0,0,0,2.67-5.61V138.14A7.12,7.12,0,0,0,528.94,132.54Z"/></g></g></svg>
